<?xml version="1.0" encoding="UTF-8" standalone="no"?>
<svg
   xmlns:dc="http://purl.org/dc/elements/1.1/"
   xmlns:cc="http://creativecommons.org/ns#"
   xmlns:rdf="http://www.w3.org/1999/02/22-rdf-syntax-ns#"
   xmlns:svg="http://www.w3.org/2000/svg"
   xmlns="http://www.w3.org/2000/svg"
   xmlns:sodipodi="http://sodipodi.sourceforge.net/DTD/sodipodi-0.dtd"
   xmlns:inkscape="http://www.inkscape.org/namespaces/inkscape"
   viewBox="0 0 268.46454 269.254"
   height="269.254"
   width="268.46454"
   version="1.1"
   id="svg2"
   inkscape:version="0.91 r13725"
   sodipodi:docname="logo.svg">
  <sodipodi:namedview
     pagecolor="#ffffff"
     bordercolor="#666666"
     borderopacity="1"
     objecttolerance="10"
     gridtolerance="10"
     guidetolerance="10"
     inkscape:pageopacity="0"
     inkscape:pageshadow="2"
     inkscape:window-width="1088"
     inkscape:window-height="616"
     id="namedview4259"
     showgrid="false"
     inkscape:zoom="1.3403791"
     inkscape:cx="220.46763"
     inkscape:cy="148.16385"
     inkscape:window-x="371"
     inkscape:window-y="415"
     inkscape:window-maximized="0"
     inkscape:current-layer="svg2"
     fit-margin-top="0"
     fit-margin-left="0"
     fit-margin-right="0"
     fit-margin-bottom="0" />
  <metadata
     id="metadata8">
    <rdf:RDF>
      <cc:Work
         rdf:about="">
        <dc:format>image/svg+xml</dc:format>
        <dc:type
           rdf:resource="http://purl.org/dc/dcmitype/StillImage" />
        <dc:title></dc:title>
      </cc:Work>
    </rdf:RDF>
  </metadata>
  <defs
     id="defs6">
    <filter
       style="color-interpolation-filters:sRGB"
       inkscape:label="Greyscale"
       id="filter4837">
      <feColorMatrix
         values="-10 -9.89 -10 -10 0 -10 -9.89 -10 -10 0 -10 -9.89 -10 -10 0 0 0 0 1 0 "
         id="feColorMatrix4839" />
    </filter>
  </defs>
  <path
     inkscape:connector-curvature="0"
     style="fill:#2d2d2a;filter:url(#filter4837)"
     d="M 118.80705,245.72615 C 89.544852,241.46489 62.605852,225.6491 45.116852,202.46289 c -32.2312,-42.73055 -29.9999,-101.84999 5.3767,-142.46133 36.2741,-41.64165 99.566898,-49.7801 146.140198,-18.79131 53.2099,35.40462 65.5937,109.85244 26.8232,161.25264 -24.0463,31.87944 -65.4063,48.97806 -104.6499,43.26326 z m 52.9798,-67.75549 c 32.8437,-0.62684 33.0015,-0.64007 33.3082,-2.79299 0.3341,-2.34493 -5.5348,-73.32495 -6.3824,-77.190959 -0.4439,-2.02465 -0.9997,-2.29768 -3.971,-1.9508 -2.9434,0.34364 -3.457,0.10004 -3.4701,-1.64587 -0.026,-3.452101 -1.2445,-4.219461 -7.7562,-4.883491 -13.1451,-1.34048 -33.1416,2.22992 -44.4073,7.928941 l -4.6788,2.3669 -6.3212,-2.95788 C 117.15255,91.71806 107.37605,89.7252 92.466947,89.57931 78.339552,89.44107 77.336852,89.75919 77.302152,94.390041 c -0.013,1.74591 -0.5266,1.98951 -3.4701,1.64587 -2.973,-0.34708 -3.5255,-0.075 -3.9621,1.9508 -1.0838,5.028629 -6.8098,76.820869 -6.2446,78.293769 0.5244,1.36644 4.5485,1.56909 32.380095,1.63065 17.479803,0.0386 32.681403,0.47577 33.781403,0.97137 1.1,0.4956 3.575,0.63489 5.5,0.30953 1.925,-0.32536 18.35,-0.87497 36.5,-1.22137 z M 69.734152,166.59084 c 0.3251,-2.8875 1.7331,-18.49813 3.1287,-34.69025 1.3957,-16.19215 2.9654,-30.14215 3.4882,-31.00001 0.6457,-1.059429 0.7858,0.0441 0.4368,3.44026 -1.247,12.13424 -4.6247,61.6189 -4.3155,63.22428 0.3099,1.60919 1.935,1.79269 17.3282,1.95672 9.342495,0.0995 18.786298,0.6103 20.986298,1.135 2.9475,0.70298 -2.0051,0.98426 -18.821903,1.069 l -22.821995,0.115 0.5912,-5.25 z m 88.052698,4.066 c 2.2,-0.5247 11.6439,-1.03545 20.9863,-1.135 15.3933,-0.16403 17.0184,-0.34753 17.3283,-1.95672 0.3092,-1.60538 -3.0685,-51.09004 -4.3155,-63.22428 -0.3572,-3.47615 -0.218,-4.513639 0.457,-3.40417 0.5339,0.87771 2.1074,14.82771 3.4967,31.00001 1.3892,16.17227 2.7881,31.76666 3.1085,34.65416 l 0.5826,5.25 -22.8219,-0.115 c -16.8169,-0.0847 -21.7695,-0.36602 -18.822,-1.069 z m -32.0878,-2.33428 c -6.6933,-2.93741 -19.8759,-4.86086 -33.729303,-4.92137 l -13.816995,-0.0603 0.576,-5.5 c 0.3168,-3.025 1.5105,-18.1 2.6527,-33.49999 1.1421,-15.40001 2.2982,-28.222589 2.569,-28.494639 1.0626,-1.06747 20.783398,0.0706 27.610398,1.5934 3.9743,0.88648 10.0385,2.937399 13.476,4.557589 l 6.25,2.94581 0,32.44891 c 0,35.13568 0.2934,33.51167 -5.5878,30.93064 z m 11.5878,-30.81401 0,-32.56554 6.25,-2.94581 c 3.4375,-1.62019 9.5018,-3.671109 13.4761,-4.557589 6.827,-1.52279 26.5478,-2.66087 27.6104,-1.5934 0.2708,0.27205 1.4269,13.094629 2.569,28.494639 1.1422,15.39999 2.3452,30.54765 2.6735,33.66145 l 0.5969,5.66147 -7.8859,-0.54051 c -12.8081,-0.87788 -26.1578,1.08891 -43.54,6.41466 -1.6418,0.50304 -1.75,-1.47696 -1.75,-32.02937 z"
     id="path4144" />
</svg>
